<mxfile host="65bd71144e">
    <diagram id="arquitetura-local" name="Ambiente Local - LocalStack + kind">
        <mxGraphModel dx="1434" dy="844" grid="1" gridSize="10" guides="1" tooltips="1" connect="1" arrows="1" fold="1" page="1" pageScale="1" pageWidth="1400" pageHeight="1000" math="0" shadow="0">
            <root>
                <mxCell id="0"/>
                <mxCell id="1" parent="0"/>
                
                <!-- TÍTULO -->
                <mxCell id="titulo" value="Ambiente de Desenvolvimento Local" style="text;html=1;strokeColor=none;fillColor=none;align=center;verticalAlign=middle;whiteSpace=wrap;rounded=0;fontSize=24;fontStyle=1" vertex="1" parent="1">
                    <mxGeometry x="350" y="20" width="700" height="40" as="geometry"/>
                </mxCell>
                
                <mxCell id="subtitulo" value="LocalStack (AWS Emulator) + kind (Kubernetes)" style="text;html=1;strokeColor=none;fillColor=none;align=center;verticalAlign=middle;whiteSpace=wrap;rounded=0;fontSize=14;fontColor=#666666;" vertex="1" parent="1">
                    <mxGeometry x="350" y="55" width="700" height="25" as="geometry"/>
                </mxCell>
                
                <!-- DOCKER DESKTOP -->
                <mxCell id="docker-desktop" value="Docker Desktop (Windows)" style="rounded=1;whiteSpace=wrap;html=1;fillColor=#e1d5e7;strokeColor=#9673a6;fontSize=16;fontStyle=1;verticalAlign=top;align=center;spacingTop=10;" vertex="1" parent="1">
                    <mxGeometry x="40" y="100" width="1320" height="860" as="geometry"/>
                </mxCell>
                
                <!-- LOCALSTACK CONTAINER -->
                <mxCell id="localstack-box" value="LocalStack Pro Container" style="rounded=1;whiteSpace=wrap;html=1;fillColor=#dae8fc;strokeColor=#6c8ebf;fontSize=14;fontStyle=1;verticalAlign=top;align=left;spacingLeft=20;spacingTop=10;" vertex="1" parent="1">
                    <mxGeometry x="80" y="180" width="580" height="720" as="geometry"/>
                </mxCell>
                
                <mxCell id="localstack-logo" value="LocalStack" style="text;html=1;strokeColor=none;fillColor=none;align=center;verticalAlign=middle;whiteSpace=wrap;rounded=0;fontSize=18;fontStyle=1;fontColor=#0066CC;" vertex="1" parent="1">
                    <mxGeometry x="280" y="215" width="180" height="30" as="geometry"/>
                </mxCell>
                
                <mxCell id="localstack-port" value=":4566" style="text;html=1;strokeColor=none;fillColor=#fff2cc;align=center;verticalAlign=middle;whiteSpace=wrap;rounded=1;fontSize=12;fontStyle=1;" vertex="1" parent="1">
                    <mxGeometry x="530" y="190" width="80" height="30" as="geometry"/>
                </mxCell>
                
                <!-- AWS SERVICES IN LOCALSTACK -->
                <mxCell id="dynamodb-local" value="DynamoDB" style="sketch=0;points=[[0,0,0],[0.25,0,0],[0.5,0,0],[0.75,0,0],[1,0,0],[0,1,0],[0.25,1,0],[0.5,1,0],[0.75,1,0],[1,1,0],[0,0.25,0],[0,0.5,0],[0,0.75,0],[1,0.25,0],[1,0.5,0],[1,0.75,0]];outlineConnect=0;fontColor=#232F3E;gradientColor=#4D72F3;gradientDirection=north;fillColor=#3334B9;strokeColor=#ffffff;dashed=0;verticalLabelPosition=bottom;verticalAlign=top;align=center;html=1;fontSize=12;fontStyle=0;aspect=fixed;shape=mxgraph.aws4.resourceIcon;resIcon=mxgraph.aws4.dynamodb;" vertex="1" parent="1">
                    <mxGeometry x="120" y="280" width="70" height="70" as="geometry"/>
                </mxCell>
                
                <mxCell id="ecr-local" value="ECR" style="sketch=0;points=[[0,0,0],[0.25,0,0],[0.5,0,0],[0.75,0,0],[1,0,0],[0,1,0],[0.25,1,0],[0.5,1,0],[0.75,1,0],[1,1,0],[0,0.25,0],[0,0.5,0],[0,0.75,0],[1,0.25,0],[1,0.5,0],[1,0.75,0]];outlineConnect=0;fontColor=#232F3E;gradientColor=#F78E04;gradientDirection=north;fillColor=#D05C17;strokeColor=#ffffff;dashed=0;verticalLabelPosition=bottom;verticalAlign=top;align=center;html=1;fontSize=12;fontStyle=0;aspect=fixed;shape=mxgraph.aws4.resourceIcon;resIcon=mxgraph.aws4.ecr;" vertex="1" parent="1">
                    <mxGeometry x="240" y="280" width="70" height="70" as="geometry"/>
                </mxCell>
                
                <mxCell id="s3-local" value="S3" style="sketch=0;points=[[0,0,0],[0.25,0,0],[0.5,0,0],[0.75,0,0],[1,0,0],[0,1,0],[0.25,1,0],[0.5,1,0],[0.75,1,0],[1,1,0],[0,0.25,0],[0,0.5,0],[0,0.75,0],[1,0.25,0],[1,0.5,0],[1,0.75,0]];outlineConnect=0;fontColor=#232F3E;gradientColor=#60A337;gradientDirection=north;fillColor=#277116;strokeColor=#ffffff;dashed=0;verticalLabelPosition=bottom;verticalAlign=top;align=center;html=1;fontSize=12;fontStyle=0;aspect=fixed;shape=mxgraph.aws4.resourceIcon;resIcon=mxgraph.aws4.s3;" vertex="1" parent="1">
                    <mxGeometry x="360" y="280" width="70" height="70" as="geometry"/>
                </mxCell>
                
                <mxCell id="iam-local" value="IAM" style="sketch=0;points=[[0,0,0],[0.25,0,0],[0.5,0,0],[0.75,0,0],[1,0,0],[0,1,0],[0.25,1,0],[0.5,1,0],[0.75,1,0],[1,1,0],[0,0.25,0],[0,0.5,0],[0,0.75,0],[1,0.25,0],[1,0.5,0],[1,0.75,0]];outlineConnect=0;fontColor=#232F3E;gradientColor=#F54749;gradientDirection=north;fillColor=#C7131F;strokeColor=#ffffff;dashed=0;verticalLabelPosition=bottom;verticalAlign=top;align=center;html=1;fontSize=12;fontStyle=0;aspect=fixed;shape=mxgraph.aws4.resourceIcon;resIcon=mxgraph.aws4.iam;" vertex="1" parent="1">
                    <mxGeometry x="480" y="280" width="70" height="70" as="geometry"/>
                </mxCell>
                
                <mxCell id="secrets-local" value="Secrets&#10;Manager" style="sketch=0;points=[[0,0,0],[0.25,0,0],[0.5,0,0],[0.75,0,0],[1,0,0],[0,1,0],[0.25,1,0],[0.5,1,0],[0.75,1,0],[1,1,0],[0,0.25,0],[0,0.5,0],[0,0.75,0],[1,0.25,0],[1,0.5,0],[1,0.75,0]];outlineConnect=0;fontColor=#232F3E;gradientColor=#F54749;gradientDirection=north;fillColor=#C7131F;strokeColor=#ffffff;dashed=0;verticalLabelPosition=bottom;verticalAlign=top;align=center;html=1;fontSize=12;fontStyle=0;aspect=fixed;shape=mxgraph.aws4.resourceIcon;resIcon=mxgraph.aws4.secrets_manager;" vertex="1" parent="1">
                    <mxGeometry x="120" y="400" width="70" height="70" as="geometry"/>
                </mxCell>
                
                <mxCell id="cloudwatch-local" value="CloudWatch" style="sketch=0;points=[[0,0,0],[0.25,0,0],[0.5,0,0],[0.75,0,0],[1,0,0],[0,1,0],[0.25,1,0],[0.5,1,0],[0.75,1,0],[1,1,0],[0,0.25,0],[0,0.5,0],[0,0.75,0],[1,0.25,0],[1,0.5,0],[1,0.75,0]];outlineConnect=0;fontColor=#232F3E;gradientColor=#F34482;gradientDirection=north;fillColor=#BC1356;strokeColor=#ffffff;dashed=0;verticalLabelPosition=bottom;verticalAlign=top;align=center;html=1;fontSize=12;fontStyle=0;aspect=fixed;shape=mxgraph.aws4.resourceIcon;resIcon=mxgraph.aws4.cloudwatch;" vertex="1" parent="1">
                    <mxGeometry x="240" y="400" width="70" height="70" as="geometry"/>
                </mxCell>
                
                <mxCell id="ec2-local" value="EC2/VPC" style="sketch=0;points=[[0,0,0],[0.25,0,0],[0.5,0,0],[0.75,0,0],[1,0,0],[0,1,0],[0.25,1,0],[0.5,1,0],[0.75,1,0],[1,1,0],[0,0.25,0],[0,0.5,0],[0,0.75,0],[1,0.25,0],[1,0.5,0],[1,0.75,0]];outlineConnect=0;fontColor=#232F3E;gradientColor=#F78E04;gradientDirection=north;fillColor=#D05C17;strokeColor=#ffffff;dashed=0;verticalLabelPosition=bottom;verticalAlign=top;align=center;html=1;fontSize=12;fontStyle=0;aspect=fixed;shape=mxgraph.aws4.resourceIcon;resIcon=mxgraph.aws4.ec2;" vertex="1" parent="1">
                    <mxGeometry x="360" y="400" width="70" height="70" as="geometry"/>
                </mxCell>
                
                <!-- EKS NOT AVAILABLE -->
                <mxCell id="eks-not-available" value="❌ EKS&#10;(Pro feature&#10;failed on Windows)" style="sketch=0;points=[[0,0,0],[0.25,0,0],[0.5,0,0],[0.75,0,0],[1,0,0],[0,1,0],[0.25,1,0],[0.5,1,0],[0.75,1,0],[1,1,0],[0,0.25,0],[0,0.5,0],[0,0.75,0],[1,0.25,0],[1,0.5,0],[1,0.75,0]];outlineConnect=0;fontColor=#232F3E;gradientColor=#F78E04;gradientDirection=north;fillColor=#D05C17;strokeColor=#ff0000;dashed=1;verticalLabelPosition=bottom;verticalAlign=top;align=center;html=1;fontSize=11;fontStyle=0;aspect=fixed;shape=mxgraph.aws4.resourceIcon;resIcon=mxgraph.aws4.eks;opacity=50;" vertex="1" parent="1">
                    <mxGeometry x="480" y="400" width="70" height="70" as="geometry"/>
                </mxCell>
                
                <!-- DATA PERSISTENCE -->
                <mxCell id="persistence" value="📁 Persistent Data&#10;localstack-data/" style="rounded=1;whiteSpace=wrap;html=1;fillColor=#fff2cc;strokeColor=#d6b656;fontSize=11;align=center;" vertex="1" parent="1">
                    <mxGeometry x="120" y="520" width="200" height="60" as="geometry"/>
                </mxCell>
                
                <!-- KIND CLUSTER -->
                <mxCell id="kind-box" value="kind Cluster (case-local)" style="rounded=1;whiteSpace=wrap;html=1;fillColor=#d5e8d4;strokeColor=#82b366;fontSize=14;fontStyle=1;verticalAlign=top;align=left;spacingLeft=20;spacingTop=10;" vertex="1" parent="1">
                    <mxGeometry x="720" y="180" width="600" height="720" as="geometry"/>
                </mxCell>
                
                <mxCell id="kind-logo" value="Kubernetes (kind)" style="text;html=1;strokeColor=none;fillColor=none;align=center;verticalAlign=middle;whiteSpace=wrap;rounded=0;fontSize=18;fontStyle=1;fontColor=#326CE5;" vertex="1" parent="1">
                    <mxGeometry x="920" y="215" width="200" height="30" as="geometry"/>
                </mxCell>
                
                <mxCell id="kind-port" value="via kubectl" style="text;html=1;strokeColor=none;fillColor=#e1d5e7;align=center;verticalAlign=middle;whiteSpace=wrap;rounded=1;fontSize=12;fontStyle=1;" vertex="1" parent="1">
                    <mxGeometry x="1170" y="190" width="100" height="30" as="geometry"/>
                </mxCell>
                
                <!-- NAMESPACE -->
                <mxCell id="namespace-case" value="Namespace: case" style="rounded=1;whiteSpace=wrap;html=1;fillColor=#f5f5f5;strokeColor=#666666;fontSize=12;fontStyle=1;verticalAlign=top;align=left;spacingLeft=15;spacingTop=5;" vertex="1" parent="1">
                    <mxGeometry x="760" y="280" width="520" height="580" as="geometry"/>
                </mxCell>
                
                <!-- BACKEND PODS -->
                <mxCell id="backend-pod" value="Backend Pod" style="sketch=0;html=1;dashed=0;whitespace=wrap;fillColor=#2875E2;strokeColor=#ffffff;points=[[0.005,0.63,0],[0.1,0.2,0],[0.9,0.2,0],[0.5,0,0],[0.995,0.63,0],[0.72,0.99,0],[0.5,1,0],[0.28,0.99,0]];verticalLabelPosition=bottom;align=center;verticalAlign=top;shape=mxgraph.kubernetes.icon;prIcon=pod" vertex="1" parent="1">
                    <mxGeometry x="800" y="340" width="80" height="80" as="geometry"/>
                </mxCell>
                
                <mxCell id="backend-container" value="Node.js + Express&#10;dd-trace (APM)&#10;connects to:&#10;LocalStack:4566" style="rounded=1;whiteSpace=wrap;html=1;fillColor=#ffffff;strokeColor=#2875E2;fontSize=10;align=left;verticalAlign=top;spacingLeft=10;spacingTop=5;" vertex="1" parent="1">
                    <mxGeometry x="920" y="340" width="140" height="80" as="geometry"/>
                </mxCell>
                
                <!-- FRONTEND PODS -->
                <mxCell id="frontend-pod" value="Frontend Pod" style="sketch=0;html=1;dashed=0;whitespace=wrap;fillColor=#2875E2;strokeColor=#ffffff;points=[[0.005,0.63,0],[0.1,0.2,0],[0.9,0.2,0],[0.5,0,0],[0.995,0.63,0],[0.72,0.99,0],[0.5,1,0],[0.28,0.99,0]];verticalLabelPosition=bottom;align=center;verticalAlign=top;shape=mxgraph.kubernetes.icon;prIcon=pod" vertex="1" parent="1">
                    <mxGeometry x="800" y="460" width="80" height="80" as="geometry"/>
                </mxCell>
                
                <mxCell id="frontend-container" value="React + Vite&#10;Static Web App&#10;nginx server" style="rounded=1;whiteSpace=wrap;html=1;fillColor=#ffffff;strokeColor=#2875E2;fontSize=10;align=left;verticalAlign=top;spacingLeft=10;spacingTop=5;" vertex="1" parent="1">
                    <mxGeometry x="920" y="460" width="140" height="80" as="geometry"/>
                </mxCell>
                
                <!-- MOBILE POD -->
                <mxCell id="mobile-pod" value="Mobile Pod" style="sketch=0;html=1;dashed=0;whitespace=wrap;fillColor=#2875E2;strokeColor=#ffffff;points=[[0.005,0.63,0],[0.1,0.2,0],[0.9,0.2,0],[0.5,0,0],[0.995,0.63,0],[0.72,0.99,0],[0.5,1,0],[0.28,0.99,0]];verticalLabelPosition=bottom;align=center;verticalAlign=top;shape=mxgraph.kubernetes.icon;prIcon=pod" vertex="1" parent="1">
                    <mxGeometry x="800" y="580" width="80" height="80" as="geometry"/>
                </mxCell>
                
                <mxCell id="mobile-container" value="Expo Web&#10;React Native&#10;http-server" style="rounded=1;whiteSpace=wrap;html=1;fillColor=#ffffff;strokeColor=#2875E2;fontSize=10;align=left;verticalAlign=top;spacingLeft=10;spacingTop=5;" vertex="1" parent="1">
                    <mxGeometry x="920" y="580" width="140" height="80" as="geometry"/>
                </mxCell>
                
                <!-- SERVICES -->
                <mxCell id="backend-svc-local" value="backend&#10;Service" style="sketch=0;html=1;dashed=0;whitespace=wrap;fillColor=#326CE5;strokeColor=#ffffff;points=[[0.005,0.63,0],[0.1,0.2,0],[0.9,0.2,0],[0.5,0,0],[0.995,0.63,0],[0.72,0.99,0],[0.5,1,0],[0.28,0.99,0]];verticalLabelPosition=bottom;align=center;verticalAlign=top;shape=mxgraph.kubernetes.icon;prIcon=svc" vertex="1" parent="1">
                    <mxGeometry x="1100" y="350" width="60" height="60" as="geometry"/>
                </mxCell>
                
                <mxCell id="frontend-svc-local" value="frontend&#10;Service" style="sketch=0;html=1;dashed=0;whitespace=wrap;fillColor=#326CE5;strokeColor=#ffffff;points=[[0.005,0.63,0],[0.1,0.2,0],[0.9,0.2,0],[0.5,0,0],[0.995,0.63,0],[0.72,0.99,0],[0.5,1,0],[0.28,0.99,0]];verticalLabelPosition=bottom;align=center;verticalAlign=top;shape=mxgraph.kubernetes.icon;prIcon=svc" vertex="1" parent="1">
                    <mxGeometry x="1100" y="470" width="60" height="60" as="geometry"/>
                </mxCell>
                
                <!-- INGRESS -->
                <mxCell id="ingress-local" value="Ingress&#10;(nginx)" style="sketch=0;html=1;dashed=0;whitespace=wrap;fillColor=#326CE5;strokeColor=#ffffff;points=[[0.005,0.63,0],[0.1,0.2,0],[0.9,0.2,0],[0.5,0,0],[0.995,0.63,0],[0.72,0.99,0],[0.5,1,0],[0.28,0.99,0]];verticalLabelPosition=bottom;align=center;verticalAlign=top;shape=mxgraph.kubernetes.icon;prIcon=ing" vertex="1" parent="1">
                    <mxGeometry x="1100" y="710" width="60" height="60" as="geometry"/>
                </mxCell>
                
                <mxCell id="ingress-port" value=":8080" style="text;html=1;strokeColor=none;fillColor=#fff2cc;align=center;verticalAlign=middle;whiteSpace=wrap;rounded=1;fontSize=12;fontStyle=1;" vertex="1" parent="1">
                    <mxGeometry x="1180" y="725" width="60" height="30" as="geometry"/>
                </mxCell>
                
                <!-- CONFIGMAP -->
                <mxCell id="configmap" value="ConfigMap&#10;env-config" style="sketch=0;html=1;dashed=0;whitespace=wrap;fillColor=#326CE5;strokeColor=#ffffff;points=[[0.005,0.63,0],[0.1,0.2,0],[0.9,0.2,0],[0.5,0,0],[0.995,0.63,0],[0.72,0.99,0],[0.5,1,0],[0.28,0.99,0]];verticalLabelPosition=bottom;align=center;verticalAlign=top;shape=mxgraph.kubernetes.icon;prIcon=cm" vertex="1" parent="1">
                    <mxGeometry x="800" y="720" width="60" height="60" as="geometry"/>
                </mxCell>
                
                <mxCell id="secret-k8s" value="Secret&#10;datadog" style="sketch=0;html=1;dashed=0;whitespace=wrap;fillColor=#326CE5;strokeColor=#ffffff;points=[[0.005,0.63,0],[0.1,0.2,0],[0.9,0.2,0],[0.5,0,0],[0.995,0.63,0],[0.72,0.99,0],[0.5,1,0],[0.28,0.99,0]];verticalLabelPosition=bottom;align=center;verticalAlign=top;shape=mxgraph.kubernetes.icon;prIcon=secret" vertex="1" parent="1">
                    <mxGeometry x="920" y="720" width="60" height="60" as="geometry"/>
                </mxCell>
                
                <!-- OBSERVABILITY STACK -->
                <mxCell id="obs-title" value="Observability Stack (Docker Compose)" style="text;html=1;strokeColor=none;fillColor=none;align=left;verticalAlign=middle;whiteSpace=wrap;rounded=0;fontSize=14;fontStyle=1" vertex="1" parent="1">
                    <mxGeometry x="80" y="620" width="300" height="30" as="geometry"/>
                </mxCell>
                
                <mxCell id="prometheus" value="Prometheus&#10;:9090" style="shape=image;html=1;verticalAlign=top;verticalLabelPosition=bottom;labelBackgroundColor=#ffffff;imageAspect=0;aspect=fixed;image=https://cdn4.iconfinder.com/data/icons/logos-and-brands/512/255_Prometheus_Logo-128.png" vertex="1" parent="1">
                    <mxGeometry x="120" y="670" width="60" height="60" as="geometry"/>
                </mxCell>
                
                <mxCell id="grafana" value="Grafana&#10;:3100" style="shape=image;html=1;verticalAlign=top;verticalLabelPosition=bottom;labelBackgroundColor=#ffffff;imageAspect=0;aspect=fixed;image=https://cdn4.iconfinder.com/data/icons/logos-and-brands/512/141_Grafana_logo_logos-128.png" vertex="1" parent="1">
                    <mxGeometry x="220" y="670" width="60" height="60" as="geometry"/>
                </mxCell>
                
                <mxCell id="loki" value="Loki&#10;:3101" style="rounded=1;whiteSpace=wrap;html=1;fillColor=#f8cecc;strokeColor=#b85450;fontSize=10;fontStyle=1" vertex="1" parent="1">
                    <mxGeometry x="320" y="680" width="60" height="40" as="geometry"/>
                </mxCell>
                
                <mxCell id="tempo" value="Tempo&#10;:3102" style="rounded=1;whiteSpace=wrap;html=1;fillColor=#ffe6cc;strokeColor=#d79b00;fontSize=10;fontStyle=1" vertex="1" parent="1">
                    <mxGeometry x="420" y="680" width="60" height="40" as="geometry"/>
                </mxCell>
                
                <!-- DEVELOPER -->
                <mxCell id="developer" value="Developer" style="shape=umlActor;verticalLabelPosition=bottom;verticalAlign=top;html=1;outlineConnect=0;fillColor=#f8cecc;strokeColor=#b85450;" vertex="1" parent="1">
                    <mxGeometry x="40" y="430" width="30" height="60" as="geometry"/>
                </mxCell>
                
                <!-- CONNECTIONS -->
                <mxCell id="conn1" style="edgeStyle=orthogonalEdgeStyle;rounded=0;orthogonalLoop=1;jettySize=auto;html=1;strokeWidth=2;strokeColor=#0066CC;entryX=0;entryY=0.5;entryDx=0;entryDy=0;entryPerimeter=0;" edge="1" parent="1" source="developer" target="ingress-local">
                    <mxGeometry relative="1" as="geometry">
                        <Array as="points">
                            <mxPoint x="55" y="740"/>
                        </Array>
                    </mxGeometry>
                </mxCell>
                
                <mxCell id="conn2" style="edgeStyle=orthogonalEdgeStyle;rounded=0;orthogonalLoop=1;jettySize=auto;html=1;strokeWidth=2;strokeColor=#FF6B00;dashed=1;" edge="1" parent="1" source="backend-pod">
                    <mxGeometry relative="1" as="geometry">
                        <mxPoint x="660" y="315" as="targetPoint"/>
                        <Array as="points">
                            <mxPoint x="700" y="380"/>
                            <mxPoint x="700" y="315"/>
                        </Array>
                    </mxGeometry>
                </mxCell>
                
                <mxCell id="conn2-label" value="http://host.docker.internal:4566" style="text;html=1;strokeColor=none;fillColor=#fff2cc;align=center;verticalAlign=middle;whiteSpace=wrap;rounded=1;fontSize=9;" vertex="1" parent="1">
                    <mxGeometry x="490" y="295" width="160" height="20" as="geometry"/>
                </mxCell>
                
                <mxCell id="conn3" style="edgeStyle=orthogonalEdgeStyle;rounded=0;orthogonalLoop=1;jettySize=auto;html=1;strokeWidth=2;strokeColor=#9933FF;" edge="1" parent="1" source="backend-pod" target="grafana">
                    <mxGeometry relative="1" as="geometry">
                        <Array as="points">
                            <mxPoint x="700" y="380"/>
                            <mxPoint x="700" y="600"/>
                            <mxPoint x="250" y="600"/>
                        </Array>
                    </mxGeometry>
                </mxCell>
                
                <!-- ARROWS BETWEEN SERVICES -->
                <mxCell id="arrow1" style="edgeStyle=orthogonalEdgeStyle;rounded=0;orthogonalLoop=1;jettySize=auto;html=1;exitX=1;exitY=0.5;exitDx=0;exitDy=0;exitPerimeter=0;entryX=0;entryY=0.5;entryDx=0;entryDy=0;entryPerimeter=0;strokeWidth=2;strokeColor=#0066CC;" edge="1" parent="1" source="backend-pod" target="backend-svc-local">
                    <mxGeometry relative="1" as="geometry"/>
                </mxCell>
                
                <mxCell id="arrow2" style="edgeStyle=orthogonalEdgeStyle;rounded=0;orthogonalLoop=1;jettySize=auto;html=1;exitX=1;exitY=0.5;exitDx=0;exitDy=0;exitPerimeter=0;entryX=0;entryY=0.5;entryDx=0;entryDy=0;entryPerimeter=0;strokeWidth=2;strokeColor=#0066CC;" edge="1" parent="1" source="frontend-pod" target="frontend-svc-local">
                    <mxGeometry relative="1" as="geometry"/>
                </mxCell>
                
                <mxCell id="arrow3" style="edgeStyle=orthogonalEdgeStyle;rounded=0;orthogonalLoop=1;jettySize=auto;html=1;exitX=0.5;exitY=0;exitDx=0;exitDy=0;exitPerimeter=0;entryX=0.5;entryY=1;entryDx=0;entryDy=0;entryPerimeter=0;strokeWidth=2;strokeColor=#0066CC;" edge="1" parent="1" source="ingress-local" target="backend-svc-local">
                    <mxGeometry relative="1" as="geometry"/>
                </mxCell>
                
                <mxCell id="arrow4" style="edgeStyle=orthogonalEdgeStyle;rounded=0;orthogonalLoop=1;jettySize=auto;html=1;exitX=0.5;exitY=0;exitDx=0;exitDy=0;exitPerimeter=0;entryX=0.5;entryY=1;entryDx=0;entryDy=0;entryPerimeter=0;strokeWidth=2;strokeColor=#0066CC;" edge="1" parent="1" source="ingress-local" target="frontend-svc-local">
                    <mxGeometry relative="1" as="geometry"/>
                </mxCell>
                
                <!-- LEGEND -->
                <mxCell id="legend-box2" value="" style="rounded=1;whiteSpace=wrap;html=1;fillColor=#f5f5f5;strokeColor=#666666;fontColor=#333333;" vertex="1" parent="1">
                    <mxGeometry x="80" y="760" width="580" height="100" as="geometry"/>
                </mxCell>
                
                <mxCell id="legend-title2" value="Legenda" style="text;html=1;strokeColor=none;fillColor=none;align=center;verticalAlign=middle;whiteSpace=wrap;rounded=0;fontSize=14;fontStyle=1" vertex="1" parent="1">
                    <mxGeometry x="280" y="765" width="180" height="25" as="geometry"/>
                </mxCell>
                
                <mxCell id="leg1" value="LocalStack → AWS Services (DynamoDB, S3, ECR, IAM, etc)" style="text;html=1;strokeColor=none;fillColor=none;align=left;verticalAlign=middle;whiteSpace=wrap;rounded=0;fontSize=11;" vertex="1" parent="1">
                    <mxGeometry x="100" y="795" width="540" height="20" as="geometry"/>
                </mxCell>
                
                <mxCell id="leg2" value="kind → Kubernetes local (pods, services, ingress, configmap)" style="text;html=1;strokeColor=none;fillColor=none;align=left;verticalAlign=middle;whiteSpace=wrap;rounded=0;fontSize=11;" vertex="1" parent="1">
                    <mxGeometry x="100" y="815" width="540" height="20" as="geometry"/>
                </mxCell>
                
                <mxCell id="leg3" value="Backend pods conectam ao LocalStack via host.docker.internal:4566" style="text;html=1;strokeColor=none;fillColor=none;align=left;verticalAlign=middle;whiteSpace=wrap;rounded=0;fontSize=11;fontColor=#FF6B00;fontStyle=1" vertex="1" parent="1">
                    <mxGeometry x="100" y="835" width="540" height="20" as="geometry"/>
                </mxCell>
                
                <!-- KEY FEATURES -->
                <mxCell id="features-box" value="" style="rounded=1;whiteSpace=wrap;html=1;fillColor=#e1d5e7;strokeColor=#9673a6;fontColor=#333333;verticalAlign=top;align=left;spacingLeft=15;spacingTop=10;" vertex="1" parent="1">
                    <mxGeometry x="720" y="920" width="600" height="30" as="geometry"/>
                </mxCell>
                
                <mxCell id="features" value="✅ No AWS costs  |  ✅ Works offline  |  ✅ Fast iteration  |  ✅ Same K8s manifests as production" style="text;html=1;strokeColor=none;fillColor=none;align=center;verticalAlign=middle;whiteSpace=wrap;rounded=0;fontSize=11;fontStyle=1;fontColor=#000000;" vertex="1" parent="1">
                    <mxGeometry x="720" y="925" width="600" height="20" as="geometry"/>
                </mxCell>
            </root>
        </mxGraphModel>
    </diagram>
</mxfile>
